<svg xmlns="http://www.w3.org/2000/svg" id="canvas" viewBox="742.787 250.263 454.406 327.277"><path d="M 752.03,469.41 C 752.76 468.21, 752.90 466.69, 752.70 463.93 C 752.51 461.16, 751.39 459.86, 751.06 455.60 C 750.72 451.34, 750.24 448.32, 751.03 442.63 C 751.82 436.94, 752.73 433.35, 755.00 427.13 C 757.26 420.90, 758.65 417.62, 762.35 411.50 C 766.05 405.37, 768.65 401.96, 773.49 396.52 C 778.34 391.08, 781.37 388.00, 786.60 384.30 C 791.83 380.60, 794.87 379.16, 799.64 378.00 C 804.42 376.85, 806.88 377.13, 810.47 378.51 C 814.06 379.90, 815.35 380.61, 817.60 384.93 C 819.84 389.25, 820.79 392.75, 821.69 400.11 C 822.59 407.46, 822.65 412.41, 822.08 421.71 C 821.51 431.01, 820.50 436.45, 818.83 446.62 C 817.16 456.78, 815.74 463.10, 813.73 472.54 C 811.72 481.98, 810.20 487.07, 808.80 493.81 C 807.41 500.56, 806.15 503.27, 806.74 506.27 C 807.33 509.27, 809.36 510.00, 811.76 508.80 C 814.16 507.61, 815.30 505.26, 818.72 500.30 C 822.15 495.33, 824.18 491.29, 828.89 483.99 C 833.60 476.70, 836.62 472.11, 842.28 463.82 C 847.93 455.53, 851.18 450.86, 857.19 442.54 C 863.19 434.23, 866.57 429.57, 872.30 422.24 C 878.03 414.90, 880.99 411.26, 885.84 405.85 C 890.69 400.44, 893.16 398.18, 896.55 395.19 C 899.94 392.20, 901.43 391.45, 902.78 390.90 C 904.14 390.35, 903.38 390.27, 903.32 392.44 C 903.26 394.60, 903.43 396.61, 902.48 401.74 C 901.53 406.87, 900.58 410.70, 898.57 418.09 C 896.57 425.47, 894.98 430.05, 892.45 438.66 C 889.93 447.27, 888.34 452.56, 885.97 461.16 C 883.60 469.76, 882.27 474.39, 880.58 481.66 C 878.90 488.93, 877.90 492.15, 877.53 497.49 C 877.16 502.83, 877.05 505.44, 878.74 508.37 C 880.43 511.29, 882.82 512.40, 886.00 512.10 C 889.18 511.80, 890.64 510.46, 894.65 506.87 C 898.65 503.27, 900.91 500.62, 906.04 494.12 C 911.17 487.62, 914.22 483.15, 920.29 474.37 C 926.36 465.58, 929.76 460.09, 936.40 450.17 C 943.05 440.25, 946.90 434.44, 953.51 424.78 C 960.11 415.12, 963.47 410.18, 969.45 401.87 C 975.42 393.57, 978.42 389.71, 983.37 383.23 C 988.32 376.76, 990.68 373.81, 994.21 369.49 C 997.73 365.18, 999.47 363.99, 1001.00 361.66 C 1002.53 359.32, 1002.25 357.94, 1001.85 357.83 C 1001.44 357.73, 1000.11 357.92, 998.99 361.13 C 997.87 364.34, 997.80 367.28, 996.25 373.88 C 994.69 380.48, 993.62 384.96, 991.20 394.14 C 988.78 403.32, 987.08 408.89, 984.16 419.79 C 981.25 430.70, 979.57 437.45, 976.61 448.65 C 973.66 459.86, 971.92 465.79, 969.40 475.82 C 966.88 485.86, 965.48 490.92, 964.02 498.83 C 962.55 506.74, 962.33 510.01, 962.08 515.35 C 961.82 520.69, 961.79 522.69, 962.75 525.54 C 963.71 528.38, 965.20 528.89, 966.87 529.57 C 968.54 530.25, 970.00 529.67, 971.12 528.92 C 972.24 528.16, 972.77 526.68, 972.46 525.80 C 972.16 524.91, 970.35 524.39, 969.60 524.48 C 968.84 524.57, 968.96 525.74, 968.70 526.23 C 968.43 526.72, 968.61 527.34, 968.27 526.94 C 967.92 526.54, 967.59 526.56, 966.98 524.25 C 966.38 521.94, 965.35 520.40, 965.23 515.39 C 965.12 510.39, 965.15 507.05, 966.39 499.24 C 967.63 491.42, 968.98 486.33, 971.42 476.32 C 973.85 466.31, 975.58 460.36, 978.55 449.17 C 981.53 437.98, 983.21 431.23, 986.27 420.37 C 989.33 409.51, 991.11 403.98, 993.83 394.88 C 996.55 385.78, 997.89 381.38, 999.87 374.86 C 1001.86 368.34, 1003.27 365.83, 1003.77 362.27 C 1004.27 358.71, 1003.60 357.74, 1002.38 357.06 C 1001.15 356.38, 999.77 356.78, 997.64 358.89 C 995.51 361.00, 994.96 363.02, 991.73 367.61 C 988.49 372.20, 986.26 375.21, 981.48 381.83 C 976.70 388.45, 973.72 392.33, 967.81 400.70 C 961.89 409.08, 958.54 414.03, 951.92 423.70 C 945.31 433.37, 941.45 439.18, 934.74 449.05 C 928.02 458.91, 924.57 464.38, 918.36 473.00 C 912.15 481.63, 908.94 486.00, 903.68 492.18 C 898.41 498.36, 895.71 500.75, 892.04 503.91 C 888.38 507.07, 887.26 507.48, 885.35 507.98 C 883.44 508.49, 883.36 508.50, 882.47 506.44 C 881.59 504.37, 880.76 502.50, 880.93 497.67 C 881.11 492.83, 881.83 489.43, 883.34 482.27 C 884.85 475.11, 886.14 470.41, 888.50 461.85 C 890.85 453.29, 892.45 448.03, 895.12 439.46 C 897.79 430.90, 899.54 426.42, 901.84 419.04 C 904.15 411.66, 905.47 408.03, 906.63 402.57 C 907.79 397.11, 908.53 394.71, 907.65 391.74 C 906.76 388.78, 904.90 387.58, 902.22 387.75 C 899.54 387.92, 897.93 389.32, 894.25 392.59 C 890.57 395.85, 888.57 398.44, 883.82 404.09 C 879.06 409.74, 876.16 413.40, 870.47 420.82 C 864.79 428.25, 861.42 432.92, 855.38 441.24 C 849.34 449.55, 846.08 454.21, 840.26 462.42 C 834.44 470.62, 831.21 475.11, 826.29 482.26 C 821.36 489.41, 818.92 493.35, 815.63 498.17 C 812.33 502.99, 810.92 504.78, 809.82 506.37 C 808.72 507.97, 809.76 508.53, 810.13 506.13 C 810.50 503.73, 810.48 500.99, 811.68 494.37 C 812.87 487.75, 814.20 482.50, 816.09 473.02 C 817.97 463.55, 819.41 457.22, 821.12 447.00 C 822.83 436.77, 823.93 431.33, 824.65 421.89 C 825.36 412.44, 825.48 407.48, 824.68 399.77 C 823.87 392.07, 823.20 388.27, 820.62 383.36 C 818.04 378.44, 816.14 376.93, 811.78 375.19 C 807.43 373.45, 804.24 373.34, 798.83 374.65 C 793.43 375.96, 790.27 377.75, 784.76 381.72 C 779.24 385.70, 776.26 388.89, 771.25 394.53 C 766.25 400.16, 763.64 403.62, 759.74 409.90 C 755.85 416.17, 754.35 419.49, 751.78 425.90 C 749.20 432.30, 748.07 435.95, 746.88 441.92 C 745.69 447.89, 745.89 451.16, 745.81 455.75 C 745.73 460.33, 745.84 462.02, 746.48 464.86 C 747.13 467.69, 747.92 469.03, 749.02 469.94 C 750.13 470.85, 751.29 470.61, 752.03 469.41" style="stroke: black; fill: black;"/><path d="M 1107.71,253.49 C 1106.54 254.07, 1105.85 254.47, 1104.08 257.64 C 1102.31 260.81, 1101.36 263.13, 1098.87 269.34 C 1096.38 275.55, 1094.99 279.59, 1091.64 288.70 C 1088.28 297.80, 1086.21 303.31, 1082.08 314.87 C 1077.95 326.43, 1075.43 333.28, 1070.99 346.51 C 1066.55 359.75, 1064.13 367.19, 1059.87 381.03 C 1055.61 394.87, 1053.34 402.19, 1049.67 415.70 C 1046.00 429.20, 1044.53 436.29, 1041.51 448.55 C 1038.50 460.81, 1036.79 466.79, 1034.59 476.98 C 1032.40 487.17, 1031.62 492.15, 1030.55 499.50 C 1029.48 506.85, 1029.37 509.54, 1029.24 513.71 C 1029.10 517.89, 1029.21 518.67, 1029.88 520.39 C 1030.54 522.12, 1031.29 522.39, 1032.56 522.35 C 1033.82 522.32, 1035.26 522.08, 1036.21 520.23 C 1037.16 518.38, 1037.41 516.65, 1037.31 513.10 C 1037.22 509.54, 1036.16 507.24, 1035.74 502.47 C 1035.32 497.70, 1035.06 494.90, 1035.20 489.24 C 1035.33 483.59, 1035.88 480.18, 1036.41 474.21 C 1036.93 468.24, 1037.22 464.97, 1037.84 459.40 C 1038.46 453.82, 1038.53 451.15, 1039.51 446.33 C 1040.49 441.50, 1041.06 439.31, 1042.73 435.27 C 1044.40 431.22, 1045.23 429.37, 1047.87 426.10 C 1050.51 422.83, 1052.05 421.67, 1055.92 418.91 C 1059.80 416.16, 1062.18 414.64, 1067.23 412.33 C 1072.28 410.03, 1075.18 409.18, 1081.18 407.38 C 1087.18 405.59, 1090.58 404.79, 1097.25 403.37 C 1103.92 401.96, 1107.75 401.43, 1114.54 400.32 C 1121.33 399.20, 1124.57 398.71, 1131.18 397.80 C 1137.80 396.89, 1141.42 396.55, 1147.62 395.76 C 1153.82 394.96, 1156.84 394.54, 1162.18 393.85 C 1167.53 393.15, 1169.99 392.66, 1174.35 392.27 C 1178.71 391.87, 1180.86 392.17, 1183.97 391.88 C 1187.08 391.59, 1188.40 391.27, 1189.90 390.83 C 1191.40 390.38, 1191.58 389.92, 1191.48 389.66 C 1191.37 389.40, 1190.82 388.95, 1189.38 389.54 C 1187.95 390.14, 1186.88 390.64, 1184.32 392.63 C 1181.77 394.62, 1180.36 396.22, 1176.61 399.50 C 1172.85 402.77, 1170.31 404.56, 1165.54 409.00 C 1160.77 413.44, 1157.98 416.13, 1152.76 421.71 C 1147.55 427.29, 1144.80 430.61, 1139.47 436.92 C 1134.15 443.23, 1130.96 446.82, 1126.13 453.25 C 1121.31 459.67, 1118.87 462.84, 1115.33 469.04 C 1111.80 475.25, 1110.39 478.51, 1108.44 484.26 C 1106.49 490.01, 1105.76 492.79, 1105.59 497.80 C 1105.42 502.80, 1106.11 504.90, 1107.59 509.29 C 1109.08 513.69, 1110.52 515.81, 1113.01 519.77 C 1115.51 523.73, 1117.34 525.48, 1120.08 529.10 C 1122.82 532.73, 1124.51 534.55, 1126.71 537.88 C 1128.92 541.20, 1129.96 542.92, 1131.11 545.72 C 1132.26 548.53, 1132.65 549.88, 1132.47 551.89 C 1132.28 553.90, 1131.99 554.06, 1130.18 555.78 C 1128.38 557.49, 1127.12 558.62, 1123.43 560.46 C 1119.75 562.30, 1117.20 563.38, 1111.76 564.98 C 1106.31 566.57, 1102.69 567.38, 1096.22 568.44 C 1089.76 569.50, 1086.03 569.76, 1079.43 570.27 C 1072.83 570.79, 1069.27 571.05, 1063.23 571.02 C 1057.20 571.00, 1054.02 570.94, 1049.26 570.13 C 1044.50 569.33, 1042.50 568.34, 1039.43 567.02 C 1036.36 565.70, 1035.72 564.58, 1033.90 563.54 C 1032.07 562.50, 1031.31 561.88, 1030.31 561.83 C 1029.31 561.78, 1028.73 562.23, 1028.90 563.30 C 1029.07 564.37, 1029.42 565.51, 1031.16 567.17 C 1032.89 568.82, 1034.06 570.19, 1037.57 571.57 C 1041.08 572.94, 1043.58 573.46, 1048.71 574.04 C 1053.85 574.63, 1057.05 574.57, 1063.25 574.49 C 1069.44 574.41, 1072.98 574.13, 1079.69 573.64 C 1086.39 573.14, 1090.13 572.94, 1096.76 572.02 C 1103.39 571.10, 1107.10 570.45, 1112.85 569.04 C 1118.60 567.62, 1121.26 566.80, 1125.52 564.96 C 1129.78 563.12, 1131.65 562.32, 1134.14 559.83 C 1136.64 557.35, 1137.57 555.78, 1138.00 552.53 C 1138.43 549.29, 1137.71 547.11, 1136.28 543.61 C 1134.86 540.11, 1133.36 538.49, 1130.87 535.01 C 1128.38 531.52, 1126.65 529.72, 1123.83 526.19 C 1121.00 522.65, 1119.21 520.99, 1116.73 517.34 C 1114.25 513.68, 1112.93 511.81, 1111.43 507.91 C 1109.93 504.02, 1109.22 502.40, 1109.24 497.86 C 1109.25 493.33, 1109.77 490.74, 1111.49 485.25 C 1113.21 479.77, 1114.48 476.53, 1117.85 470.46 C 1121.22 464.39, 1123.58 461.24, 1128.33 454.89 C 1133.08 448.55, 1136.27 444.95, 1141.60 438.74 C 1146.94 432.53, 1149.71 429.23, 1155.00 423.85 C 1160.28 418.47, 1163.09 415.89, 1168.02 411.82 C 1172.95 407.75, 1175.53 406.20, 1179.64 403.50 C 1183.75 400.80, 1185.81 400.32, 1188.58 398.32 C 1191.36 396.33, 1192.52 395.45, 1193.52 393.52 C 1194.52 391.58, 1194.29 390.15, 1193.58 388.64 C 1192.86 387.12, 1191.99 386.43, 1189.95 385.95 C 1187.90 385.47, 1186.60 385.83, 1183.36 386.24 C 1180.12 386.64, 1178.11 387.16, 1173.76 387.96 C 1169.41 388.75, 1166.95 389.29, 1161.63 390.19 C 1156.32 391.09, 1153.35 391.57, 1147.17 392.47 C 1141.00 393.37, 1137.37 393.74, 1130.74 394.69 C 1124.12 395.64, 1120.87 396.13, 1114.04 397.23 C 1107.21 398.33, 1103.36 398.83, 1096.59 400.19 C 1089.83 401.55, 1086.40 402.30, 1080.21 404.03 C 1074.03 405.76, 1071.01 406.54, 1065.68 408.84 C 1060.35 411.14, 1057.78 412.62, 1053.56 415.54 C 1049.34 418.46, 1047.51 419.81, 1044.58 423.45 C 1041.65 427.08, 1040.68 429.28, 1038.90 433.71 C 1037.12 438.13, 1036.65 440.52, 1035.69 445.57 C 1034.73 450.63, 1034.71 453.33, 1034.09 458.98 C 1033.47 464.64, 1033.22 467.83, 1032.59 473.84 C 1031.96 479.85, 1031.39 483.28, 1030.95 489.03 C 1030.50 494.78, 1030.56 497.75, 1030.35 502.58 C 1030.14 507.42, 1029.86 509.84, 1029.89 513.22 C 1029.91 516.60, 1029.97 517.88, 1030.47 519.49 C 1030.98 521.09, 1031.90 521.17, 1032.41 521.23 C 1032.92 521.30, 1032.96 521.30, 1033.02 519.80 C 1033.08 518.31, 1032.72 517.77, 1032.71 513.77 C 1032.70 509.77, 1032.22 507.08, 1032.97 499.80 C 1033.72 492.52, 1034.43 487.54, 1036.46 477.37 C 1038.48 467.20, 1040.17 461.19, 1043.10 448.93 C 1046.04 436.68, 1047.50 429.59, 1051.15 416.10 C 1054.80 402.61, 1057.06 395.30, 1061.35 381.49 C 1065.63 367.68, 1068.06 360.24, 1072.58 347.05 C 1077.10 333.87, 1079.65 327.03, 1083.94 315.55 C 1088.24 304.06, 1090.40 298.59, 1094.05 289.63 C 1097.70 280.68, 1099.33 276.75, 1102.17 270.79 C 1105.02 264.82, 1106.72 263.03, 1108.27 259.82 C 1109.82 256.61, 1110.02 256.01, 1109.91 254.74 C 1109.80 253.48, 1108.87 252.91, 1107.71 253.49" style="stroke: black; fill: black;"/></svg>