<svg xmlns="http://www.w3.org/2000/svg" version="1.1" xmlns:xlink="http://www.w3.org/1999/xlink" width="1000" height="1000"><style>
    #light-icon {
      display: inline;
    }
    #dark-icon {
      display: none;
    }

    @media (prefers-color-scheme: dark) {
      #light-icon {
        display: none;
      }
      #dark-icon {
        display: inline;
      }
    }
  </style><g id="light-icon"><svg xmlns="http://www.w3.org/2000/svg" version="1.1" xmlns:xlink="http://www.w3.org/1999/xlink" width="1000" height="1000"><g><g transform="matrix(5.697810901051816,0,0,5.697810901051816,8.67206819140091,0)"><svg xmlns="http://www.w3.org/2000/svg" version="1.1" xmlns:xlink="http://www.w3.org/1999/xlink" width="172.462" height="175.506"><svg xmlns="http://www.w3.org/2000/svg" id="canvas" viewBox="602.151 244.640 172.462 175.506"><path d="M 655.80,249.01 C 655.04 249.67, 654.47 250.33, 653.10 252.84 C 651.72 255.35, 651.09 257.00, 648.90 261.56 C 646.71 266.11, 645.23 269.24, 642.13 275.62 C 639.04 282.00, 637.08 285.90, 633.41 293.45 C 629.73 301.00, 627.48 305.34, 623.74 313.38 C 620.00 321.42, 617.84 325.90, 614.71 333.66 C 611.57 341.41, 609.98 345.42, 608.07 352.17 C 606.17 358.92, 605.35 362.12, 605.19 367.39 C 605.02 372.67, 605.35 374.99, 607.25 378.54 C 609.15 382.09, 610.77 383.42, 614.69 385.16 C 618.62 386.91, 621.21 387.14, 626.89 387.27 C 632.57 387.40, 636.07 386.93, 643.11 385.81 C 650.15 384.70, 654.26 383.67, 662.10 381.69 C 669.93 379.70, 674.31 378.34, 682.28 375.90 C 690.26 373.46, 694.49 372.09, 701.97 369.48 C 709.46 366.87, 713.14 365.52, 719.70 362.84 C 726.26 360.15, 729.33 358.83, 734.79 356.05 C 740.25 353.28, 742.69 351.99, 747.01 348.96 C 751.33 345.94, 753.13 344.40, 756.38 340.92 C 759.62 337.44, 760.91 335.59, 763.25 331.57 C 765.59 327.55, 766.56 325.37, 768.08 320.82 C 769.60 316.27, 770.14 313.76, 770.84 308.81 C 771.53 303.86, 771.72 301.17, 771.56 296.08 C 771.40 291.00, 771.17 288.28, 770.04 283.38 C 768.92 278.49, 768.07 275.97, 765.92 271.60 C 763.77 267.24, 762.45 265.12, 759.29 261.55 C 756.13 257.98, 754.20 256.28, 750.11 253.78 C 746.02 251.27, 743.63 250.24, 738.85 249.03 C 734.08 247.81, 731.35 247.49, 726.25 247.70 C 721.14 247.91, 718.25 248.40, 713.33 250.08 C 708.41 251.76, 705.74 253.07, 701.64 256.08 C 697.55 259.09, 695.47 261.10, 692.85 265.13 C 690.23 269.16, 689.20 271.66, 688.52 276.25 C 687.85 280.84, 688.06 283.41, 689.48 288.08 C 690.90 292.75, 692.31 295.12, 695.63 299.60 C 698.95 304.09, 701.34 306.24, 706.09 310.53 C 710.83 314.82, 713.88 316.86, 719.36 321.05 C 724.84 325.24, 728.08 327.27, 733.50 331.46 C 738.93 335.65, 741.92 337.77, 746.49 342.00 C 751.07 346.23, 753.33 348.40, 756.36 352.63 C 759.39 356.86, 760.56 358.99, 761.63 363.16 C 762.70 367.33, 762.71 369.38, 761.71 373.48 C 760.70 377.57, 759.59 379.66, 756.60 383.62 C 753.62 387.59, 751.37 389.68, 746.78 393.32 C 742.19 396.95, 739.23 398.77, 733.67 401.81 C 728.11 404.84, 724.77 406.26, 718.99 408.49 C 713.20 410.72, 709.98 411.67, 704.72 412.95 C 699.47 414.22, 696.83 414.56, 692.70 414.88 C 688.57 415.19, 686.79 414.66, 684.08 414.51 C 681.37 414.37, 680.19 414.05, 679.17 414.17 C 678.15 414.29, 678.04 414.59, 678.98 415.11 C 679.92 415.63, 681.09 416.39, 683.87 416.75 C 686.66 417.11, 688.63 417.34, 692.88 416.92 C 697.14 416.49, 699.81 416.00, 705.14 414.62 C 710.48 413.23, 713.70 412.26, 719.56 409.98 C 725.42 407.71, 728.78 406.29, 734.44 403.22 C 740.09 400.16, 743.12 398.36, 747.84 394.66 C 752.56 390.96, 754.92 388.87, 758.06 384.72 C 761.19 380.57, 762.45 378.32, 763.51 373.91 C 764.57 369.51, 764.52 367.17, 763.35 362.72 C 762.19 358.27, 760.85 356.04, 757.69 351.67 C 754.52 347.31, 752.17 345.16, 747.51 340.89 C 742.86 336.62, 739.84 334.51, 734.39 330.31 C 728.94 326.11, 725.71 324.06, 720.26 319.87 C 714.82 315.68, 711.81 313.61, 707.16 309.35 C 702.51 305.09, 700.21 302.94, 697.03 298.57 C 693.85 294.21, 692.59 291.95, 691.27 287.54 C 689.95 283.13, 689.79 280.80, 690.43 276.53 C 691.07 272.26, 692.00 269.96, 694.47 266.18 C 696.93 262.40, 698.87 260.48, 702.77 257.61 C 706.66 254.75, 709.23 253.47, 713.94 251.87 C 718.65 250.26, 721.44 249.79, 726.32 249.60 C 731.21 249.41, 733.82 249.73, 738.37 250.90 C 742.93 252.07, 745.20 253.05, 749.09 255.44 C 752.98 257.83, 754.81 259.44, 757.83 262.84 C 760.85 266.25, 762.13 268.26, 764.20 272.45 C 766.26 276.65, 767.09 279.07, 768.18 283.81 C 769.26 288.55, 769.49 291.20, 769.64 296.14 C 769.78 301.09, 769.59 303.72, 768.91 308.54 C 768.23 313.35, 767.68 315.78, 766.22 320.20 C 764.75 324.62, 763.82 326.71, 761.59 330.61 C 759.36 334.51, 758.16 336.30, 755.06 339.71 C 751.96 343.12, 750.26 344.64, 746.08 347.65 C 741.89 350.67, 739.51 351.99, 734.14 354.78 C 728.76 357.58, 725.72 358.94, 719.21 361.65 C 712.69 364.36, 709.03 365.71, 701.57 368.33 C 694.11 370.95, 689.88 372.32, 681.92 374.73 C 673.97 377.15, 669.59 378.49, 661.78 380.41 C 653.97 382.33, 649.85 383.30, 642.88 384.32 C 635.91 385.35, 632.42 385.71, 626.93 385.54 C 621.45 385.37, 619.06 385.04, 615.43 383.47 C 611.81 381.91, 610.54 380.92, 608.79 377.71 C 607.04 374.50, 606.60 372.47, 606.70 367.43 C 606.81 362.39, 607.51 359.19, 609.33 352.52 C 611.15 345.85, 612.71 341.83, 615.81 334.10 C 618.91 326.37, 621.06 321.90, 624.81 313.88 C 628.57 305.87, 630.83 301.54, 634.58 294.03 C 638.34 286.53, 640.35 282.65, 643.60 276.35 C 646.84 270.05, 648.44 266.99, 650.83 262.54 C 653.21 258.08, 654.30 256.67, 655.52 254.08 C 656.74 251.48, 656.85 250.57, 656.91 249.55 C 656.96 248.54, 656.56 248.35, 655.80 249.01" style="stroke: black; stroke-width: 3.5; fill: black;"></path></svg></svg></g></g></svg></g><g id="dark-icon"><svg xmlns="http://www.w3.org/2000/svg" version="1.1" xmlns:xlink="http://www.w3.org/1999/xlink" width="1000" height="1000"><g><g transform="matrix(5.697810901051816,0,0,5.697810901051816,8.67206819140091,0)"><svg xmlns="http://www.w3.org/2000/svg" version="1.1" xmlns:xlink="http://www.w3.org/1999/xlink" width="172.462" height="175.506"><svg xmlns="http://www.w3.org/2000/svg" id="canvas" viewBox="602.151 244.640 172.462 175.506"><path d="M 655.80,249.01 C 655.04 249.67, 654.47 250.33, 653.10 252.84 C 651.72 255.35, 651.09 257.00, 648.90 261.56 C 646.71 266.11, 645.23 269.24, 642.13 275.62 C 639.04 282.00, 637.08 285.90, 633.41 293.45 C 629.73 301.00, 627.48 305.34, 623.74 313.38 C 620.00 321.42, 617.84 325.90, 614.71 333.66 C 611.57 341.41, 609.98 345.42, 608.07 352.17 C 606.17 358.92, 605.35 362.12, 605.19 367.39 C 605.02 372.67, 605.35 374.99, 607.25 378.54 C 609.15 382.09, 610.77 383.42, 614.69 385.16 C 618.62 386.91, 621.21 387.14, 626.89 387.27 C 632.57 387.40, 636.07 386.93, 643.11 385.81 C 650.15 384.70, 654.26 383.67, 662.10 381.69 C 669.93 379.70, 674.31 378.34, 682.28 375.90 C 690.26 373.46, 694.49 372.09, 701.97 369.48 C 709.46 366.87, 713.14 365.52, 719.70 362.84 C 726.26 360.15, 729.33 358.83, 734.79 356.05 C 740.25 353.28, 742.69 351.99, 747.01 348.96 C 751.33 345.94, 753.13 344.40, 756.38 340.92 C 759.62 337.44, 760.91 335.59, 763.25 331.57 C 765.59 327.55, 766.56 325.37, 768.08 320.82 C 769.60 316.27, 770.14 313.76, 770.84 308.81 C 771.53 303.86, 771.72 301.17, 771.56 296.08 C 771.40 291.00, 771.17 288.28, 770.04 283.38 C 768.92 278.49, 768.07 275.97, 765.92 271.60 C 763.77 267.24, 762.45 265.12, 759.29 261.55 C 756.13 257.98, 754.20 256.28, 750.11 253.78 C 746.02 251.27, 743.63 250.24, 738.85 249.03 C 734.08 247.81, 731.35 247.49, 726.25 247.70 C 721.14 247.91, 718.25 248.40, 713.33 250.08 C 708.41 251.76, 705.74 253.07, 701.64 256.08 C 697.55 259.09, 695.47 261.10, 692.85 265.13 C 690.23 269.16, 689.20 271.66, 688.52 276.25 C 687.85 280.84, 688.06 283.41, 689.48 288.08 C 690.90 292.75, 692.31 295.12, 695.63 299.60 C 698.95 304.09, 701.34 306.24, 706.09 310.53 C 710.83 314.82, 713.88 316.86, 719.36 321.05 C 724.84 325.24, 728.08 327.27, 733.50 331.46 C 738.93 335.65, 741.92 337.77, 746.49 342.00 C 751.07 346.23, 753.33 348.40, 756.36 352.63 C 759.39 356.86, 760.56 358.99, 761.63 363.16 C 762.70 367.33, 762.71 369.38, 761.71 373.48 C 760.70 377.57, 759.59 379.66, 756.60 383.62 C 753.62 387.59, 751.37 389.68, 746.78 393.32 C 742.19 396.95, 739.23 398.77, 733.67 401.81 C 728.11 404.84, 724.77 406.26, 718.99 408.49 C 713.20 410.72, 709.98 411.67, 704.72 412.95 C 699.47 414.22, 696.83 414.56, 692.70 414.88 C 688.57 415.19, 686.79 414.66, 684.08 414.51 C 681.37 414.37, 680.19 414.05, 679.17 414.17 C 678.15 414.29, 678.04 414.59, 678.98 415.11 C 679.92 415.63, 681.09 416.39, 683.87 416.75 C 686.66 417.11, 688.63 417.34, 692.88 416.92 C 697.14 416.49, 699.81 416.00, 705.14 414.62 C 710.48 413.23, 713.70 412.26, 719.56 409.98 C 725.42 407.71, 728.78 406.29, 734.44 403.22 C 740.09 400.16, 743.12 398.36, 747.84 394.66 C 752.56 390.96, 754.92 388.87, 758.06 384.72 C 761.19 380.57, 762.45 378.32, 763.51 373.91 C 764.57 369.51, 764.52 367.17, 763.35 362.72 C 762.19 358.27, 760.85 356.04, 757.69 351.67 C 754.52 347.31, 752.17 345.16, 747.51 340.89 C 742.86 336.62, 739.84 334.51, 734.39 330.31 C 728.94 326.11, 725.71 324.06, 720.26 319.87 C 714.82 315.68, 711.81 313.61, 707.16 309.35 C 702.51 305.09, 700.21 302.94, 697.03 298.57 C 693.85 294.21, 692.59 291.95, 691.27 287.54 C 689.95 283.13, 689.79 280.80, 690.43 276.53 C 691.07 272.26, 692.00 269.96, 694.47 266.18 C 696.93 262.40, 698.87 260.48, 702.77 257.61 C 706.66 254.75, 709.23 253.47, 713.94 251.87 C 718.65 250.26, 721.44 249.79, 726.32 249.60 C 731.21 249.41, 733.82 249.73, 738.37 250.90 C 742.93 252.07, 745.20 253.05, 749.09 255.44 C 752.98 257.83, 754.81 259.44, 757.83 262.84 C 760.85 266.25, 762.13 268.26, 764.20 272.45 C 766.26 276.65, 767.09 279.07, 768.18 283.81 C 769.26 288.55, 769.49 291.20, 769.64 296.14 C 769.78 301.09, 769.59 303.72, 768.91 308.54 C 768.23 313.35, 767.68 315.78, 766.22 320.20 C 764.75 324.62, 763.82 326.71, 761.59 330.61 C 759.36 334.51, 758.16 336.30, 755.06 339.71 C 751.96 343.12, 750.26 344.64, 746.08 347.65 C 741.89 350.67, 739.51 351.99, 734.14 354.78 C 728.76 357.58, 725.72 358.94, 719.21 361.65 C 712.69 364.36, 709.03 365.71, 701.57 368.33 C 694.11 370.95, 689.88 372.32, 681.92 374.73 C 673.97 377.15, 669.59 378.49, 661.78 380.41 C 653.97 382.33, 649.85 383.30, 642.88 384.32 C 635.91 385.35, 632.42 385.71, 626.93 385.54 C 621.45 385.37, 619.06 385.04, 615.43 383.47 C 611.81 381.91, 610.54 380.92, 608.79 377.71 C 607.04 374.50, 606.60 372.47, 606.70 367.43 C 606.81 362.39, 607.51 359.19, 609.33 352.52 C 611.15 345.85, 612.71 341.83, 615.81 334.10 C 618.91 326.37, 621.06 321.90, 624.81 313.88 C 628.57 305.87, 630.83 301.54, 634.58 294.03 C 638.34 286.53, 640.35 282.65, 643.60 276.35 C 646.84 270.05, 648.44 266.99, 650.83 262.54 C 653.21 258.08, 654.30 256.67, 655.52 254.08 C 656.74 251.48, 656.85 250.57, 656.91 249.55 C 656.96 248.54, 656.56 248.35, 655.80 249.01" style="stroke: #fdfdfd; stroke-width: 3.5; fill: #fdfdfd;"></path></svg></svg></g></g></svg></g></svg>